{
	"buffers":[{
		"uri":"data:application/octet-stream;base64,",
		"byteLength":1272
	},
	{
		"uri":"data:application/octet-stream;base64,",
		"byteLength":1296
	},
	{
		"uri":"data:application/octet-stream;base64,",
		"byteLength":2640
	}],
	"asset":{
		"version":"2.0",
		"generator":"Created using the official Cinema 4D glTF Exporter 1.000x284978"
	},
	"scenes":[{
		"nodes":[0,
		1,
		2]
	}],
	"nodes":[{
		"name":"Metaball.4",
		"translation":[0.0,
		189.82286071777345,
		-373.56048583984377],
		"mesh":0,
		"rotation":[0.0,
		0.0,
		0.0,
		-1.0],
		"scale":[1.0,
		1.0,
		1.0]
	},
	{
		"name":"Metaball.3",
		"translation":[-37.4382438659668,
		189.82286071777345,
		-576.9307250976563],
		"mesh":1,
		"rotation":[0.0,
		0.0,
		0.0,
		-1.0],
		"scale":[1.0,
		1.0,
		1.0]
	},
	{
		"name":"Metaball.5",
		"translation":[0.0,
		237.70321655273438,
		0.0],
		"mesh":2,
		"rotation":[0.0,
		0.0,
		0.0,
		-1.0],
		"scale":[1.0,
		1.0,
		1.0]
	}],
	"meshes":[{
		"name":"Metaball.4",
		"primitives":[{
			"attributes":{
				"POSITION":1
			},
			"indices":0
		}]
	},
	{
		"name":"Metaball.3",
		"primitives":[{
			"attributes":{
				"POSITION":3
			},
			"indices":2
		}]
	},
	{
		"name":"Metaball.5",
		"primitives":[{
			"attributes":{
				"POSITION":5
			},
			"indices":4
		}]
	}],
	"accessors":[{
		"bufferView":0,
		"type":"SCALAR",
		"componentType":5123,
		"min":[0],
		"count":312,
		"byteOffset":0,
		"max":[53]
	},
	{
		"bufferView":1,
		"type":"VEC3",
		"componentType":5126,
		"min":[-166.85647583007813,
		-9.920866966247559,
		-57.36160659790039],
		"count":54,
		"byteOffset":0,
		"max":[19.239639282226564,
		68.98920440673828,
		28.354991912841798]
	},
	{
		"bufferView":2,
		"type":"SCALAR",
		"componentType":5123,
		"min":[0],
		"count":318,
		"byteOffset":0,
		"max":[54]
	},
	{
		"bufferView":3,
		"type":"VEC3",
		"componentType":5126,
		"min":[-140.65679931640626,
		-36.97214889526367,
		-61.62675476074219],
		"count":55,
		"byteOffset":0,
		"max":[62.717445373535159,
		37.24447250366211,
		20.899085998535158]
	},
	{
		"bufferView":4,
		"type":"SCALAR",
		"componentType":5123,
		"min":[0],
		"count":654,
		"byteOffset":0,
		"max":[110]
	},
	{
		"bufferView":5,
		"type":"VEC3",
		"componentType":5126,
		"min":[-182.49252319335938,
		-56.986915588378909,
		-49.1467170715332],
		"count":111,
		"byteOffset":0,
		"max":[85.22484588623047,
		105.75043487548828,
		60.07539749145508]
	}],
	"bufferViews":[{
		"buffer":0,
		"byteOffset":0,
		"target":34963,
		"byteLength":624
	},
	{
		"buffer":0,
		"byteOffset":624,
		"target":34962,
		"byteLength":648
	},
	{
		"buffer":1,
		"byteOffset":0,
		"target":34963,
		"byteLength":636
	},
	{
		"buffer":1,
		"byteOffset":636,
		"target":34962,
		"byteLength":660
	},
	{
		"buffer":2,
		"byteOffset":0,
		"target":34963,
		"byteLength":1308
	},
	{
		"buffer":2,
		"byteOffset":1308,
		"target":34962,
		"byteLength":1332
	}]
}